# xmcd CD Database Entry
#
# Track frame offsets:
# 150
# 9629
# 18240
# 31249
# 44506
# 55675
# 71799
# 86145
# 98765
#
# Disc length: 1553 seconds
#
# Revision: 1
# Processed by: cddbd v1.4PL0 Copyright (c) Steve Scherf et al.
# Submitted via: tcd 2.0b
#
DISCID=6d060f09
DTITLE=This is for you, Susy
DYEAR=1900
DGENRE=
TTITLE0=Out in the Rain
TTITLE1=You Look Better Without Makeup
TTITLE2=That's Alright With Me
TTITLE3=In Reference to Your Heart
TTITLE4=Human
TTITLE5=Love is Forever
TTITLE6=ATM
TTITLE7=Food Not Bombs
TTITLE8=Little White Lies
EXTD=
EXTT0=
EXTT1=
EXTT2=
EXTT3=
EXTT4=
EXTT5=
EXTT6=
EXTT7=
EXTT8=
PLAYORDER=
